<svg width="30" height="22" viewBox="0 0 30 22" fill="none" xmlns="http://www.w3.org/2000/svg">
<path d="M17.685 3.48171C17.5253 3.33295 17.3973 3.15355 17.3084 2.95421C17.2196 2.75488 17.1719 2.5397 17.168 2.32151C17.1642 2.10332 17.2043 1.88659 17.286 1.68425C17.3678 1.48191 17.4894 1.29811 17.6437 1.1438C17.798 0.98949 17.9818 0.867844 18.1842 0.786115C18.3865 0.704386 18.6032 0.66425 18.8214 0.6681C19.0396 0.671949 19.2548 0.719706 19.4541 0.808522C19.6535 0.897338 19.8329 1.02539 19.9816 1.18505L28.6483 9.85172C28.9526 10.1564 29.1235 10.5694 29.1235 11C29.1235 11.4307 28.9526 11.8437 28.6483 12.1484L19.9816 20.8151C19.8329 20.9747 19.6535 21.1028 19.4541 21.1916C19.2548 21.2804 19.0396 21.3281 18.8214 21.332C18.6032 21.3358 18.3865 21.2957 18.1842 21.214C17.9818 21.1323 17.798 21.0106 17.6437 20.8563C17.4894 20.702 17.3678 20.5182 17.286 20.3158C17.2043 20.1135 17.1642 19.8968 17.168 19.6786C17.1719 19.4604 17.2196 19.2452 17.3084 19.0459C17.3973 18.8466 17.5253 18.6672 17.685 18.5184L23.5783 12.625L2.5833 12.625C2.15232 12.625 1.73899 12.4538 1.43425 12.1491C1.1295 11.8443 0.958297 11.431 0.958297 11C0.958297 10.5691 1.1295 10.1557 1.43425 9.851C1.73899 9.54625 2.15232 9.37505 2.5833 9.37505L23.5783 9.37505L17.685 3.48171Z" fill="white"/>
</svg>
